<?xml version="1.0" encoding="UTF-8"?>
<svg xmlns="http://www.w3.org/2000/svg" version="1.1" xmlns:xlink="http://www.w3.org/1999/xlink" viewBox="0 0 1500 800">
  <defs>
    <style>
      .cls-1 {
        fill: #e47225;
      }

      .cls-1, .cls-2, .cls-3, .cls-4, .cls-5, .cls-6, .cls-7, .cls-8, .cls-9, .cls-10, .cls-11, .cls-12, .cls-13, .cls-14, .cls-15, .cls-16, .cls-17, .cls-18, .cls-19, .cls-20, .cls-21, .cls-22, .cls-23, .cls-24, .cls-25, .cls-26, .cls-27, .cls-28, .cls-29, .cls-30, .cls-31, .cls-32, .cls-33, .cls-34, .cls-35, .cls-36, .cls-37, .cls-38, .cls-39, .cls-40, .cls-41, .cls-42, .cls-43, .cls-44 {
        stroke-width: 0px;
      }

      .cls-2 {
        opacity: .1;
      }

      .cls-2, .cls-39 {
        fill: #010101;
      }

      .cls-3 {
        fill: url(#linear-gradient);
      }

      .cls-4, .cls-34 {
        fill: #3d464f;
      }

      .cls-5 {
        fill: #f17d4d;
      }

      .cls-6 {
        fill: #9880bb;
      }

      .cls-7 {
        fill: url(#linear-gradient-6);
      }

      .cls-8 {
        fill: #50b3e6;
      }

      .cls-9 {
        fill: #eab2ac;
      }

      .cls-45 {
        fill: none;
        stroke: #828291;
        stroke-miterlimit: 10;
        stroke-width: 1.59px;
      }

      .cls-46 {
        isolation: isolate;
      }

      .cls-10 {
        fill: #533629;
      }

      .cls-11 {
        fill: #e5e5e5;
      }

      .cls-12 {
        fill: #f79e7d;
      }

      .cls-13 {
        fill: url(#linear-gradient-5);
      }

      .cls-14 {
        fill: #fbc1a5;
      }

      .cls-15 {
        fill: #a5a0aa;
      }

      .cls-16 {
        fill: #4078bb;
      }

      .cls-17 {
        fill: #f7e7d8;
      }

      .cls-18 {
        fill: #828291;
      }

      .cls-19 {
        fill: #f7b091;
      }

      .cls-20 {
        fill: #403f3d;
      }

      .cls-21 {
        fill: url(#linear-gradient-2);
      }

      .cls-22 {
        fill: url(#linear-gradient-7);
      }

      .cls-23 {
        fill: url(#radial-gradient-2);
      }

      .cls-24 {
        fill: url(#linear-gradient-3);
      }

      .cls-25 {
        fill: #f15623;
      }

      .cls-47, .cls-34 {
        mix-blend-mode: multiply;
        opacity: .16;
      }

      .cls-26 {
        fill: #f9c25f;
      }

      .cls-27 {
        fill: #e97a24;
      }

      .cls-28 {
        fill: #458dcb;
      }

      .cls-29 {
        fill: url(#radial-gradient);
      }

      .cls-30 {
        fill: #9d2486;
      }

      .cls-31 {
        fill: #7f7cbb;
      }

      .cls-32 {
        fill: url(#linear-gradient-8);
      }

      .cls-33 {
        fill: #32150d;
      }

      .cls-35 {
        fill: #1d1532;
      }

      .cls-36 {
        fill: #fff;
      }

      .cls-37 {
        fill: #733028;
      }

      .cls-38 {
        fill: #534ca0;
      }

      .cls-39 {
        opacity: .2;
      }

      .cls-40 {
        fill: url(#linear-gradient-4);
      }

      .cls-41 {
        fill: #392f91;
      }

      .cls-42 {
        fill: #f5beaa;
      }

      .cls-43 {
        fill: #8da0d2;
      }

      .cls-44 {
        fill: #f2a08e;
      }
    </style>
    <linearGradient id="linear-gradient" x1="888.46" y1="243.8" x2="905.26" y2="232.42" gradientTransform="translate(6.58)" gradientUnits="userSpaceOnUse">
      <stop offset="0" stop-color="#d0d4d8"/>
      <stop offset=".33" stop-color="rgba(208, 212, 216, .63)" stop-opacity=".63"/>
      <stop offset=".65" stop-color="rgba(208, 212, 216, .29)" stop-opacity=".29"/>
      <stop offset=".88" stop-color="rgba(208, 212, 216, .08)" stop-opacity=".08"/>
      <stop offset="1" stop-color="#d0d4d8" stop-opacity="0"/>
    </linearGradient>
    <linearGradient id="linear-gradient-2" x1="834.78" y1="212.68" x2="836.54" y2="223.25" xlink:href="#linear-gradient"/>
    <linearGradient id="linear-gradient-3" x1="828.26" y1="102.53" x2="824.23" y2="138.27" gradientTransform="translate(6.58)" gradientUnits="userSpaceOnUse">
      <stop offset="0" stop-color="#f79e7d"/>
      <stop offset=".23" stop-color="rgba(247, 158, 125, .93)" stop-opacity=".93"/>
      <stop offset=".67" stop-color="rgba(247, 158, 125, .75)" stop-opacity=".75"/>
      <stop offset="1" stop-color="#f79e7d" stop-opacity=".6"/>
    </linearGradient>
    <radialGradient id="radial-gradient" cx="-1061.95" cy="240.67" fx="-1061.95" fy="240.67" r="8.42" gradientTransform="translate(-252.98 -35.46) rotate(177.39) scale(1 -1)" gradientUnits="userSpaceOnUse">
      <stop offset="0" stop-color="#f79e7d" stop-opacity=".7"/>
      <stop offset=".14" stop-color="rgba(247, 158, 125, .63)" stop-opacity=".63"/>
      <stop offset=".42" stop-color="rgba(247, 158, 125, .45)" stop-opacity=".45"/>
      <stop offset=".81" stop-color="rgba(247, 158, 125, .15)" stop-opacity=".15"/>
      <stop offset="1" stop-color="#f79e7d" stop-opacity="0"/>
    </radialGradient>
    <radialGradient id="radial-gradient-2" cx="-1100.06" cy="240.67" fx="-1100.06" fy="240.67" r="8.42" xlink:href="#radial-gradient"/>
    <linearGradient id="linear-gradient-4" x1="-947.92" y1="146.63" x2="-941.63" y2="143.11" gradientTransform="translate(-149.79) rotate(-180) scale(1 -1)" xlink:href="#linear-gradient-3"/>
    <linearGradient id="linear-gradient-5" x1="843.53" y1="273.79" x2="840" y2="366.92" xlink:href="#linear-gradient"/>
    <linearGradient id="linear-gradient-6" x1="860.33" y1="106.07" x2="862.34" y2="118.65" gradientTransform="translate(6.58)" gradientUnits="userSpaceOnUse">
      <stop offset="0" stop-color="#f7e7d8" stop-opacity=".2"/>
      <stop offset=".41" stop-color="rgba(247, 231, 216, .13)" stop-opacity=".13"/>
      <stop offset="1" stop-color="#f7e7d8" stop-opacity="0"/>
    </linearGradient>
    <linearGradient id="linear-gradient-7" x1="836.13" y1="109.94" x2="838.14" y2="122.52" xlink:href="#linear-gradient-6"/>
    <linearGradient id="linear-gradient-8" x1="795.42" y1="116.45" x2="797.44" y2="129.04" xlink:href="#linear-gradient-6"/>
  </defs>
  <g class="cls-46">
    <g id="Layer_1" data-name="Layer 1">
      <g>
        <circle class="cls-43" cx="415.4" cy="296.67" r="122.43" transform="translate(-88.11 380.63) rotate(-45)"/>
        <g>
          <path class="cls-38" d="M339.33,368.64h68.43c3.77,0,6.83,3.06,6.83,6.83v48.11c0,3.77-3.06,6.83-6.83,6.83h-68.43v-61.78h0Z" transform="translate(753.93 799.06) rotate(-180)"/>
          <path class="cls-43" d="M341.8,651.41c0,3.76,33.84,6.81,75.57,6.81s75.57-3.05,75.57-6.81-33.84-6.81-75.57-6.81-75.57,3.05-75.57,6.81Z"/>
          <path class="cls-6" d="M394.22,649h-25.71c-2.46,0-4.14-2.53-3.12-4.77,1.21-2.66,3.17-5.69,6.13-6.96,5.8-2.51,16.6-7.47,16.6-7.47l7.79.16s2.87,8.23,1.68,16.23c-.24,1.63-1.71,2.81-3.36,2.81Z"/>
          <rect class="cls-44" x="365.08" y="646.18" width="32.5" height="3.84" transform="translate(762.66 1296.2) rotate(-180)"/>
          <g>
            <path class="cls-44" d="M462.19,657.46h-11.73c-4.05,0-7.82-2.18-9.74-5.75-.9-1.67-1.59-3.51-1.59-5.22,0-7.25,4.58-14.74,4.58-14.74l7.79.16s12.09,9.01,14.74,20.48c.6,2.59-1.39,5.07-4.05,5.07Z"/>
            <path class="cls-6" d="M462.19,653.9h-11.73c-4.05,0-7.82-2.18-9.74-5.75-.9-1.67-1.59-3.51-1.59-5.22,0-7.25,4.58-14.74,4.58-14.74l7.79.16s12.09,9.01,14.74,20.48c.6,2.59-1.39,5.07-4.05,5.07Z"/>
          </g>
          <g>
            <path class="cls-15" d="M395.9,629.95c1.34-47.89,9.32-101.15-6.71-121.17,0,0-15.58-19.14-25.44-14.28,0,0,6.51,82.24,18.89,135.85l13.26-.4Z"/>
            <path class="cls-15" d="M391.61,516.25s19.89-94.49,22.46-116.84c2.57-22.35,0-34.34,0-34.34l-48.75-5.25-5.1,43.12c-1.05,5.49-1.34,11.1-.84,16.67l4.38,75.75,27.86,20.89Z"/>
            <path class="cls-18" d="M375.72,365.07h38.34s2.57,11.99,0,34.34c-1.37,11.96-7.54,46.37-13.77,74.65,3.17-41.76.38-94.86-24.57-108.99Z"/>
          </g>
          <g>
            <path class="cls-19" d="M257.58,191.76c2.17-1.08,6.64,6.82,7.14,6.46,1.24-.9-4.62-14.86-2.29-16.03,2.14-1.07,6.42,13.98,7.29,13.52.87-.46-3.81-16.31-1.48-16.82,2.14-.47,5.35,15.59,6.54,16.29,1.19.7-.98-15.89,1.35-16.14,1.6-.17,4.39,19.07,4.98,19.05.22,0,.76-.91.97-2.32.34-2.41-.69-5.21.49-6.5.62-.68,2.39,1.84,2.73,8.87.18,3.84-2.28,8.62-4.55,12.17,1.46,3.63,13.31,33.06,22.2,55.45,43.15-.28,64.45-38.56,64.45-38.56,8.04-8,44.35,6.08,24.93,27.51-16.68,18.41-55.17,37.72-92.87,33.9,0,0,0-.01-.01-.02-6.83-.21-13.2-4.63-15.43-11.68-7.21-22.78-12.09-56.16-12.99-62.59-5.99-2.85-7.48-10.3-7.87-10.9-.46-.72-7.75-10.58-5.58-11.66Z"/>
            <path class="cls-8" d="M369.53,223.21s-13.97,21.3-32.36,32.4c3.01,5.61,13.2,19.18,21.31,25.13,11.66-5.06,25.95-14.42,35.4-23.06,8.04-7.35,21.09-26.96,17.44-32.83-6.44-10.34-36.65-6.74-41.78-1.63Z"/>
            <path class="cls-2" d="M367.31,249.31c2.12-8.74,3.84-17.99,3.45-27.04,7.57-4.57,34.51-7.12,40.54,2.57,3.65,5.87-9.4,25.48-17.44,32.83-9.46,8.65-23.75,18.01-35.4,23.06-.62-.46-1.26-.97-1.9-1.51,4.85-9.42,8.25-19.64,10.74-29.92Z"/>
          </g>
          <g>
            <path class="cls-15" d="M457.37,630.19c-.25-46.32,5.32-77.03-5.69-124.97,0,0-25.92-18.6-35.57-13.35,0,0,9.9,85.63,22.64,138.64l18.62-.33Z"/>
            <path class="cls-15" d="M451.68,505.22s5.78-42.96,8.95-77.19c.98-10.53,5.32-25.42,5.72-30.7,1.67-22.44-5.45-34.35-5.45-34.35l-62.64,2.52,17.88,127.23,35.54,12.49Z"/>
            <path class="cls-18" d="M443.33,380.43s-1.3,10.38,11.44,16.76l-11.44-16.76Z"/>
          </g>
          <path class="cls-45" d="M456.25,365.24l-10.63,137.85s14.96,59.67,11.84,116.73"/>
          <rect class="cls-15" x="374.06" y="365.07" width="46.74" height="46.74" transform="translate(794.85 776.89) rotate(-180)"/>
          <path class="cls-39" d="M462.69,366.73s-33.79,11.04-64.43,9.69c-30.64-1.35-37.58-8.17-37.58-8.17,0,0,88.94-7.6,102.01-1.52Z"/>
          <path class="cls-8" d="M405.83,206.55s22.49-4.17,35.84,6.47c10.39,8.27,14.91,16.72,18.5,43.28,8.66,64.03,2.52,110.43,2.52,110.43,0,0-67.71,8-102.01,1.52,17.05-83.59-9.82-102.08,2.68-132.37,7.08-17.16,17.45-30.84,42.47-29.32Z"/>
          <path class="cls-2" d="M460.05,287.5c-7.46-12.26-13.64-25.38-17.37-39.27-3.22-12-4.45-24.47-3.31-36.83.79.5,1.56,1.03,2.29,1.62,10.39,8.27,14.91,16.72,18.5,43.28,1.79,13.22,2.94,25.66,3.65,37.12-1.28-1.96-2.55-3.93-3.76-5.93Z"/>
          <g>
            <rect class="cls-5" x="431.28" y="344.99" width="73.6" height="53.74" transform="translate(871.91 812.66) rotate(-170.96)"/>
            <rect class="cls-30" x="427.25" y="396" width="73.6" height="2.41" transform="translate(859.91 862.4) rotate(-170.96)"/>
            <rect class="cls-30" x="431.73" y="339.34" width="1.72" height="53.74" transform="translate(802.24 795.86) rotate(-170.96)"/>
            <rect class="cls-26" x="435.32" y="347.33" width="71.87" height="49.49" transform="translate(878.17 813.59) rotate(-170.96)"/>
            <rect class="cls-5" x="440.52" y="346.46" width="73.6" height="53.74" transform="translate(890.02 817.03) rotate(-170.96)"/>
            <rect class="cls-30" x="440.96" y="340.81" width="1.72" height="53.74" transform="translate(820.36 800.23) rotate(-170.96)"/>
            <rect class="cls-9" x="493.61" y="357.79" width="13.09" height="38.35" transform="translate(934.84 827.85) rotate(-170.96)"/>
          </g>
          <path class="cls-2" d="M421.48,298.45s-26.85-14.15-47.77.69l47.77-.69Z"/>
          <g>
            <path class="cls-19" d="M438.06,253.19s40.83,20.56,45.16,54.9c-3.83,20.11-14.01,73.67-14.01,73.67l10,2.32s27.03-59.83,25.26-80.44c-1.78-20.61-18.63-62.39-42.44-78.8-23.81-16.41-32.96,21.45-23.97,28.35Z"/>
            <path class="cls-8" d="M433.83,251.61s19.79,12.61,33.23,29.37c8.03-5.24,19.78-10.5,25.26-26.03-6.56-10.88-17.73-23.81-27.55-32.04-8.35-6.99-29.52-17.33-34.85-12.94-9.4,7.75-1.83,37.22,3.91,41.63Z"/>
            <path class="cls-19" d="M469.83,378.51s-5.64,2.85-8.56,6.65c-4.29,5.57-5.75,9.6-4.69,10.21,1.52.87,5.92-4.87,6.11-4.76.51.3-2.83,9.46-1.38,10.17,2.12,1.02,4.4-4.67,5.04-3.44.64,1.22-1.29,5.39.77,6.12,2.24.8,2.81-3.97,3.8-3.9.98.07-.63,4.53,1.76,4.75,2.6.24,2.28-4.12,3.81-4.23.62-.04-.15,3.9,2.27,4.13,2.41.23,1.82-6.86,1.81-7.72,0-.85,3.88-10.97-3.89-16.55l-6.86-1.42Z"/>
          </g>
          <path class="cls-19" d="M391.74,232.66c-14.85-5.77-14.01-23.73,14.09-26.11,0,0,13.16-2.44,25.32,1.18,4.09,1.22,6.13,5.91,4.27,9.75-7.88,16.21-26.48,21.86-43.68,15.18Z"/>
          <g>
            <path class="cls-41" d="M379.47,144.44s-1.63,32.26-14.23,36.87c0,0,9.61,26.15,39.03,22.36l-8.23-59.23h-16.57Z"/>
            <path class="cls-41" d="M452.04,204.61h-51.38v-89.31h22.73c12.54,0,46.9,16.24,28.65,89.31Z"/>
            <rect class="cls-19" x="399.53" y="185.02" width="22.19" height="25.29" transform="translate(821.25 395.33) rotate(-180)"/>
            <path class="cls-44" d="M399.53,205.75c9.37.92,16.02-3.74,22.19-9.38v-11.35s-22.19,0-22.19,0v20.73Z"/>
            <path class="cls-19" d="M397.59,199.49h7.24c2.43,0,4.8-.67,6.8-1.92l6.49-4.05c8.76-5.46,14-14.53,14-24.23v-30.45s-52.65,0-52.65,0v39.4c0,1.02.22,2.03.66,2.97,2.13,4.59,9.17,18.28,17.47,18.28Z"/>
            <g>
              <path class="cls-10" d="M406.8,165.72c.06,2.6,1.19,4.68,2.53,4.65,1.34-.03,2.37-2.17,2.31-4.77-.06-2.6-1.19-4.68-2.53-4.65-1.34.03-2.37,2.17-2.31,4.77Z"/>
              <path class="cls-36" d="M409.22,164.77c0,1,.43,1.81.97,1.81s.97-.81.97-1.81-.43-1.81-.97-1.81-.97.81-.97,1.81Z"/>
            </g>
            <g>
              <path class="cls-10" d="M385.95,165.72c.06,2.6,1.19,4.68,2.53,4.65,1.34-.03,2.37-2.17,2.31-4.77-.06-2.6-1.19-4.68-2.53-4.65-1.34.03-2.37,2.17-2.31,4.77Z"/>
              <path class="cls-36" d="M388.37,164.77c0,1,.43,1.81.97,1.81s.97-.81.97-1.81-.43-1.81-.97-1.81-.97.81-.97,1.81Z"/>
            </g>
            <path class="cls-19" d="M425.73,166.72c0,4.95,3.57,8.95,7.97,8.95s7.97-4.01,7.97-8.95-3.57-8.95-7.97-8.95-7.97,4.01-7.97,8.95Z"/>
            <path class="cls-44" d="M430.74,166.72c0,1.83,1.32,3.32,2.95,3.32-1.04-2.33-1.58-4.38,0-6.64-1.63,0-2.95,1.49-2.95,3.32Z"/>
            <path class="cls-44" d="M393.8,171.64v-.03s3.57-2.97,3.15-7.34c0,0,2.36,5.79-3.15,7.86-.07.27-.11.55-.11.84,0,2.03,1.65,3.68,3.68,3.68.81,0,1.55-.27,2.15-.71-.59,1.23-1.85,2.09-3.31,2.09-2.03,0-3.68-1.65-3.68-3.68,0-1.09.5-2.05,1.26-2.73Z"/>
            <path class="cls-44" d="M381.69,175.63c0,1.79,1.82,3.24,4.07,3.24s4.07-1.45,4.07-3.24-1.82-3.24-4.07-3.24-4.07,1.45-4.07,3.24Z"/>
            <ellipse class="cls-44" cx="413.64" cy="175.63" rx="4.07" ry="3.24"/>
            <path class="cls-41" d="M406.5,159.97h9.77s0-2.2,0-2.2l-14.01-2.04h0c0,2.34,1.9,4.23,4.23,4.23Z"/>
            <path class="cls-44" d="M379.47,155.73h0c5.94,0,11.03-4.58,12.15-10.9l.31-1.77h0c2.3,7.56,8.81,12.68,16.15,12.68h25.62s0-17.96,0-17.96c0-11.34-8.47-20.54-18.93-20.54h-16.37c-10.45,0-18.93,9.2-18.93,20.54v17.96Z"/>
            <path class="cls-41" d="M381.96,159.97h9.77s0-2.2,0-2.2l-14.01-2.04h0c0,2.34,1.9,4.23,4.23,4.23Z"/>
            <path class="cls-41" d="M432.22,157.77s-5.45,3.19-5.14,8.81c.31,5.61.69,6.81-1.36,6.21s-2.25-12.24,1.16-15.02c0,0-8.06,2.18-6.13,0,1.93-2.18,8.81-9.14,11.47,0Z"/>
            <path class="cls-41" d="M374.85,153.81h0c6.44,0,11.97-4.58,13.18-10.9l.34-1.77h0c2.49,7.56,9.56,12.68,17.52,12.68h27.8s0-17.96,0-17.96c0-11.34-9.2-20.54-20.54-20.54h-17.77c-11.34,0-20.54,9.2-20.54,20.54v17.96Z"/>
            <rect class="cls-41" x="427.25" y="132.58" width="10.72" height="25.19" transform="translate(865.23 290.35) rotate(-180)"/>
            <path class="cls-36" d="M393.75,179.52c0,3.33,2.7,6.02,6.02,6.02s6.02-2.7,6.02-6.02h-12.04Z"/>
          </g>
          <path class="cls-44" d="M425.48,216.85h-14.85c-1.23,0-3.83,3.73-3.83,3.73l18.68-3.73Z"/>
          <path class="cls-44" d="M401.84,220.58s-2.46-3.1-3.86-3.73c-1.4-.63-10.69,0-10.69,0l14.55,3.73Z"/>
          <path class="cls-38" d="M359.14,385.54c1.13,0,2.23-.61,2.8-1.68l89.89-168.95c.82-1.55.24-3.47-1.31-4.29-1.55-.82-3.47-.23-4.29,1.31l-89.89,168.95c-.82,1.55-.24,3.47,1.31,4.29.47.25.98.37,1.49.37Z"/>
          <path class="cls-11" d="M437.45,632.07c7.29,1.44,14.23,1.58,20.7.05.84-.2,1.43-.97,1.43-1.84v-8.59c0-1.13-.99-2-2.12-1.87-6.57.76-13.04.82-19.39.03-1.14-.14-2.14.72-2.14,1.86v8.49c0,.9.64,1.69,1.52,1.87Z"/>
          <path class="cls-11" d="M379.94,632.49c5.81,1.44,11.34,1.58,16.51.05.67-.2,1.14-.97,1.14-1.84v-8.59c0-1.13-.79-2-1.69-1.87-5.24.76-10.4.82-15.46.03-.9-.14-1.71.72-1.71,1.86v8.49c0,.9.51,1.69,1.21,1.87Z"/>
        </g>
        <g>
          <rect class="cls-35" x="469.07" y="378.3" width="12.11" height="3.13" rx=".44" ry=".44" transform="translate(786.52 902.43) rotate(-159.43)"/>
          <rect class="cls-31" x="478.32" y="380.12" width=".96" height="2.09" transform="translate(793.18 906.23) rotate(-159.43)"/>
          <path class="cls-38" d="M472.76,376.09h4.74c.78,0,1.41.63,1.41,1.41v4.74c0,.78-.63,1.41-1.41,1.41h-4.74c-.78,0-1.41-.63-1.41-1.41v-4.74c0-.78.63-1.41,1.41-1.41Z" transform="translate(786.51 902.44) rotate(-159.43)"/>
          <rect class="cls-31" x="472.89" y="377.63" width="4.47" height="4.47" rx=".69" ry=".69" transform="translate(786.5 902.44) rotate(-159.43)"/>
        </g>
        <g>
          <path class="cls-17" d="M898.58,204.82c18.66,12.39,34.07,48.95,35.28,52.96,0,0-16.39,18.54-36.93,15.3,0,0-8.09-20.28-11.02-40.44-2.33-16.09,2.49-34.58,12.67-27.81Z"/>
          <path class="cls-3" d="M898.58,204.82c18.66,12.39,34.07,48.95,35.28,52.96,0,0-16.39,18.54-36.93,15.3,0,0-8.09-20.28-11.02-40.44-2.33-16.09,2.49-34.58,12.67-27.81Z"/>
          <path class="cls-16" d="M781.34,244.79s11.41,89.1,13.38,93.44c1.97,4.34,25.95,3.59,25.95,3.59l-11.65-104.41-27.68,7.38Z"/>
          <path class="cls-27" d="M803.51,97.17c-17.76,2.95-20.98,6.61-22.11,12.27-1.26,6.28,16.46,46.37,18.05,51.97,1.59,5.6,9.85,6.55,9.85,6.55l-5.79-70.79Z"/>
          <path class="cls-27" d="M790.19,101.89c-.74-.57-6.54-9.5,4.48-13.03,6.83-2.19,18.78-3.75,25.86-4.64,10.26-1.28,20.62-2.12,30.97-2.11,8.31,0,22.28-.89,27.02,7.63,1.31,2.35,1.84,5.05,2.15,7.72,1.25,10.56-.63,21.48-5.35,31.01,1.17-7.67,1.57-15.45,1.2-23.2-.89,9.25-2.5,18.43-4.82,27.42-1.61-.76-3.21-1.53-4.82-2.29-.33,2.49-1.15,4.91-2.39,7.08-6.86-1.68-13.34-6.18-19.57-9.51-7.84-4.19-15.68-8.38-23.52-12.57-8.9-4.76-22.33-8.76-31.23-13.52Z"/>
          <path class="cls-14" d="M787.61,621.17l2.83-15.15,17.27,2.52-.93,14.22s-3.25,6.37-12.31,6.52c-9.06.15-6.86-8.11-6.86-8.11Z"/>
          <polygon class="cls-14" points="864.69 611.54 864.13 623.86 867.43 631.88 881.68 627.35 884.79 618.21 885.84 604.01 864.69 611.54"/>
          <path class="cls-20" d="M917.74,632.47c-4.42-2.21-18.47-6.45-28.29-14.23-1.08-.86-2.48-1.18-3.84-.93,0,0-.75.14-.76.14,0,0-1.28,6.6-8.54,8.93-4.88,1.57-12.19-2.52-12.19-2.52l-1.32,17.47h56.25c1.15-.59,1.5-1.81,1.5-1.81,0,0,2.81-4.24-2.82-7.05Z"/>
          <path class="cls-20" d="M805.72,333.9s-8.68,110.79-9.53,120.86c-.85,10.07-11.48,160.03-11.48,160.03,13.32,5.21,27.66,1.2,27.66,1.2l23.27-151.17,15.32-80.62,5.16-1.43s1.75,98.15,1.79,97.65c.04-.5,2.21,131.79,2.21,131.79,12.9,6.51,30.82-.53,30.82-.53,0,0,5.58-128.34,7.15-135.84.96-4.57,1.49-59.89,1.76-102.37.05-7.1.08-13.84.11-19.92.09-17.21.12-29.18.12-29.18l-94.35,9.52Z"/>
          <path class="cls-34" d="M803.1,367.2c23.57,6.39,67.19,12.02,96.8-5.08.05-8.99.09-17.02.12-23.33l-95.33,8.29c-.43,5.53-.98,12.45-1.58,20.12Z"/>
          <path class="cls-33" d="M895.28,323.88c-.74-2.71-1.34-4.41-1.34-4.41l-84.17,3.46s-.3,1.72-.76,4.66c.42.58.76,1.01.76,1.01,37.56,15.33,64.76,15.35,85.5-4.71Z"/>
          <path class="cls-17" d="M893.19,201.7c8.93,3.76,16.19,14.31,5.17,40.32l-3.83,80.05s4.28,12.33,1.58,14.95c-20.75,20.13-47.98,20.13-85.58,4.78,0,0-1.98-2.52-2.24-3.54-1.38-5.44,3.21-20.62,3.21-20.62l-21.01-65.33s-20.72-28.19-7-38.42c17.22-12.84,66.64-30.31,109.7-12.18Z"/>
          <path class="cls-21" d="M859.67,216.22c2.09-2.02,1.55-18.74-1.68-22.2-14.16-.63-27.91,1.34-39.93,4.55,0,.01,8.84,23.56,13.62,22.05,4.78-1.51,9.33-16.72,12.17-15.72,2.84,1,13.61,13.45,15.82,11.31Z"/>
          <path class="cls-14" d="M848.78,201.08c-3.54,2.04-6.32,3.11-10.3,3.21-5.9.16-8.06-3.29-10.03-3.82l-19.15-44.22,34.65,15.62.08,1.47,4.75,27.75Z"/>
          <path class="cls-12" d="M839.26,187.32c-3.8-.44-7.17-1.52-10.64-3.1-3.28-1.5-6.44-3.21-9.44-5.17l-9.88-22.8,34.65,15.62.08,1.47,2.51,14.66c-2.42-.24-4.86-.39-7.28-.67Z"/>
          <path class="cls-17" d="M823.6,189.26s15.44,13.34,19.01,12.76c3.57-.58,4.17-12.59,4.17-12.59,0,0,10.17,2.76,11.73,4.54,1.56,1.78,1.57,17.9-.11,18.75-3.52,1.78-12.62-9.31-14.56-7.8-1.93,1.51-11.62,13.53-13.42,13.33-1.8-.2-13.44-17.01-12.63-22.21.81-5.2,5.8-6.76,5.8-6.76Z"/>
          <path class="cls-14" d="M796.83,132.71s-11.97-2.73-10.31,11.56c1.66,14.29,12,14.57,15.05,15.19,0,0,5.69,25.44,37.08,23,31.38-2.44,26.24-26.74,26.01-42.85-.23-16.11,1.57-44.09-18.97-46.16-20.72-2.08-50.68-.72-48.86,39.26Z"/>
          <path class="cls-24" d="M863.47,108.48c-1.32-4.01-2.94-7.87-5.8-11.05-1.48-1.64-3.08-3.18-4.55-4.82l-18.73-.85-16.4,2.27-17.53,31.93s2.01,18.66,13.09,12.74c11.07-5.92,3.52-21.01,7.8-28.9,4.28-7.89,13.36-9.12,20.45-1.11,0,0,2.08-5.64,6.77-3.61,3.25,1.41,3.49,4.91,5.41,15.22,1.92,10.32,9.4,6.85,9.4,6.85l1.95-13.79c-.69-1.6-1.33-3.22-1.88-4.89Z"/>
          <path class="cls-12" d="M842.33,155.23c-.01-.14.24-.27.57-.53.33-.25.74-.69,1.03-1.35.14-.33.25-.71.3-1.11v-.13s.02-.07.02-.07v-.1s0-.2,0-.2c0-.03,0,.04,0,.03h0s0,0,0,0h0s0-.03,0-.03v-.04s0-.08,0-.08c-.01-.22-.04-.46-.09-.7-.18-.96-.64-2.02-1.19-3.19-2.19-4.76-3.57-8.8-3.08-9.03.49-.23,2.67,3.45,4.86,8.21.55,1.19,1.07,2.46,1.2,3.76.03.32.04.64.02.96,0,.09-.01.18-.02.27l-.03.2v.1s-.04.12-.04.12c-.02.08-.04.16-.05.24-.15.59-.41,1.09-.7,1.5-.59.83-1.37,1.26-1.92,1.34-.56.1-.86-.05-.87-.17Z"/>
          <path class="cls-37" d="M859.24,130.99c-.2.21-1.01-.3-2.33-.9-1.32-.61-3.17-1.26-5.35-1.39-.13,0-.25,0-.38-.01-.13,0-.26,0-.39,0-.26,0-.52,0-.77.02-.51.02-.99.09-1.46.16-.93.15-1.75.37-2.44.59-.69.22-1.26.43-1.66.56-.41.13-.68.18-.76.06-.07-.11.03-.35.33-.69.31-.35.81-.77,1.51-1.19,1.39-.84,3.59-1.6,6.17-1.45.29.02.57.04.9.09.32.04.61.1.9.17.58.13,1.12.31,1.63.5,1.01.4,1.85.9,2.49,1.4,1.29,1,1.78,1.9,1.61,2.08Z"/>
          <path class="cls-37" d="M820.15,130.51c-.18-.18.33-1.07,1.63-2.06.65-.49,1.49-.98,2.51-1.37.51-.19,1.05-.36,1.63-.48.29-.06.58-.12.9-.15.33-.05.61-.06.9-.08,2.58-.12,4.78.67,6.16,1.53.69.43,1.19.85,1.49,1.21.3.34.4.59.32.7-.08.11-.35.07-.76-.07-.4-.13-.96-.35-1.65-.58-.69-.23-1.51-.46-2.44-.63-.46-.08-.95-.15-1.45-.18-.25-.02-.51-.03-.77-.03-.13,0-.26,0-.39,0-.12,0-.25,0-.38,0-2.18.1-4.04.74-5.37,1.33-1.33.59-2.14,1.08-2.34.87Z"/>
          <path class="cls-29" d="M827.27,156.27c.21,4.64-3.38,8.58-8.03,8.79-4.64.21-8.58-3.38-8.79-8.03-.21-4.64,3.38-8.58,8.03-8.79,4.64-.21,8.58,3.38,8.79,8.03Z"/>
          <path class="cls-23" d="M865.34,154.53c.21,4.64-3.38,8.58-8.03,8.79-4.64.21-8.58-3.38-8.79-8.03-.21-4.64,3.38-8.58,8.03-8.79,4.64-.21,8.58,3.38,8.79,8.03Z"/>
          <path class="cls-37" d="M830.92,142.39c.11,2.33-1.69,4.3-4.02,4.4-2.33.11-4.3-1.69-4.4-4.02-.11-2.33,1.69-4.3,4.02-4.4,2.33-.11,4.3,1.69,4.4,4.02Z"/>
          <path class="cls-37" d="M855.68,142.05c.11,2.33-1.69,4.3-4.02,4.4-2.33.11-4.3-1.69-4.4-4.02-.11-2.33,1.69-4.3,4.02-4.4,2.33-.11,4.3,1.69,4.4,4.02Z"/>
          <path class="cls-40" d="M790.61,139.08c-1.09,3.78.46,7.77,1.98,11.39.45,1.08.95,2.22,1.92,2.88.97.66,2.54.56,3.05-.49.49-1.02-.23-2.17-.8-3.15-.57-.98-.89-2.45.06-3.06.44-.28,1.02-.26,1.49-.51,1.01-.53,1.01-1.98.74-3.1-.36-1.54-.93-3.04-1.7-4.42-.75-1.36-1.94-2.75-3.49-2.73-1.63.03-2.8,1.62-3.25,3.18Z"/>
          <path class="cls-17" d="M791.25,252.3l14.75,54.2-7.5,50.64s66.63,25.33,108.45-1.96l-8.59-113.17-107.11,10.28Z"/>
          <path class="cls-13" d="M906.95,355.18l-7.69-101.29c-.38,3.26-.76,6.51-1.13,9.77-3.85-10.38-9.46-19.76-16.5-28.25-6.79-8.2-5.76-13.46-9.18-23.6,3.43,15.53-.65,10.39,8.6,81.55,5.36,41.23-37.81,13.79-38.9,16.11,8.32-17.76,18.12-51.38,22.79-70.44-13.16,23.89-28.26,46.71-45.11,68.16,1.78-28.36-.02-56.93-5.34-84.84-3.7,16.64-7.4,33.27-11.1,49.91-3.06-9.78-6.13-19.56-9.19-29.33l-3.26,10.77,4.46,13.85,10.6,38.94-7.5,50.64s66.63,25.33,108.45-1.96Z"/>
          <path class="cls-20" d="M803.03,623.64c-6.8-6.41-12.84-1.01-12.84-1.01l-2.58-1.46c-3.74,5.62-10.93,12.33-11.84,15.63-1.72,6.25,1.33,13.52,11.4,13.52,9.82,0,19.27-6,20.34-10.88.64-2.92-.4-10.82-.73-16.69l-3.75.88Z"/>
          <g class="cls-47">
            <path class="cls-4" d="M835.63,464.82l.46-2.41c-5.07,17.75-12.16,41.71-13.42,41.77-2.01.1-22.15-3.12-23.03-5.77-.39-1.19-2.08-19.25-3.82-38.92-2.07,27.72-11.11,155.29-11.11,155.29,13.32,5.21,27.66,1.2,27.66,1.2l23.27-151.17Z"/>
            <path class="cls-4" d="M890.92,611.68s0-.11.01-.28c0-.04,0-.08,0-.12,0-.14.01-.3.02-.5.02-.56.06-1.38.11-2.43.01-.24.02-.49.03-.75.02-.48.04-.99.07-1.54,0-.21.02-.43.03-.64.05-1.22.11-2.59.18-4.11.01-.25.02-.5.03-.76.04-.86.08-1.77.12-2.71,0-.02,0-.03,0-.05.04-1,.09-2.05.14-3.14,0-.17.02-.35.02-.52.12-2.68.25-5.6.39-8.71.01-.31.03-.61.04-.92.24-5.32.51-11.16.8-17.3,0-.1,0-.21.01-.31.11-2.31.22-4.65.33-7.02,0-.08,0-.16.01-.24.93-19.64,1.98-41.16,2.9-57.52,0-.02,0-.04,0-.06.23-4.09.45-7.85.66-11.18-4.1,2.97-11.05,7.66-13.88,7.57-4.12-.13-18.03-11.44-18.85-16.48-.65-4.02-5.39-41.8-7.26-56.81.48,26.49,1.01,55.56,1.03,55.29,0-.02,0,.16.01.53,0,.07,0,.16,0,.24.03,1.51.09,5.14.18,10.28,0,.3.01.61.02.92.03,1.87.07,3.93.1,6.14.01.74.03,1.49.04,2.26.05,3.08.11,6.43.17,9.96,0,.44.01.89.02,1.34.65,39,1.66,100.11,1.66,100.11,2.42,1.22,5.01,1.97,7.63,2.37.87.13,1.75.23,2.62.3.87.06,1.74.1,2.61.1.86,0,1.72-.02,2.56-.07.84-.05,1.67-.12,2.47-.21.81-.09,1.59-.19,2.35-.31,1.14-.18,2.23-.38,3.24-.6.67-.15,1.31-.3,1.91-.45,3.3-.83,5.42-1.66,5.42-1.66,0,0,0,0,0,0Z"/>
          </g>
          <path class="cls-1" d="M801.91,133.43c.84,3.77,1.67,7.54,2.51,11.31.69-.06,1.58-.32,2.27-.38.13-3.9.62-7.79.75-11.69-1.89-.03-3.65.79-5.53.75Z"/>
          <path class="cls-27" d="M851.06,90.46c5.2,1.34,10.21,4.34,12.74,9.07,2.15,4.01,2.31,8.74,2.42,13.28.13,5.06.25,10.12.38,15.18-6.38,2.02-11.54-1.05-12.6-7.69-.59-3.7-.02-7.49-.44-11.21-.3-2.65-1.52-5.64-4.11-6.28-1.69-.42-3.49.36-4.75,1.56-1.26,1.2-2.08,2.78-2.88,4.32-.68-4.61-5.06-8.27-9.71-8.51-4.65-.25-9.21,2.67-11.32,6.83-2.53,4.99-.27,8.68-.19,13.63.07,4.08-1.72,9.2-4.3,12.33-3,3.64-7.99,5.59-12.62,4.75-4.64-.84-8.68-4.56-9.71-9.16-.77-3.46.08-7.06,1.03-10.47,2.39-8.63,5.85-17.7,13.3-22.66,4.13-2.75,9.04-3.89,13.93-4.29,2.36-.2,4.7.08,7.02,0,3.22-.11,6.15-1.33,9.28-1.74,3.99-.53,8.66.09,12.53,1.09Z"/>
          <g>
            <path class="cls-7" d="M880.74,109.79c.44-4.09.43-8.23-.06-12.32-.09-.78-.21-1.57-.35-2.35-9.01,4.28-18.51,7.49-28.26,9.63.84,1.23,1.31,2.84,1.48,4.35.43,3.72-.15,7.52.44,11.21,0,.05.02.1.03.15,7.43-2.28,14.64-5.16,21.73-8.36.31-2.26.57-4.53.79-6.81.1,2.13.14,4.26.12,6.39,1.36-.62,2.72-1.25,4.07-1.89Z"/>
            <path class="cls-22" d="M843.07,106.4c-.61.09-1.22.17-1.83.25.26.65.46,1.33.57,2.03.4-.77.8-1.55,1.26-2.29Z"/>
            <path class="cls-32" d="M820.59,120.64c-.08-4.67-2.08-8.22-.19-12.79-11.7-.23-23.37-1.98-34.58-5.29-2.86,1.93-3.88,4.18-4.42,6.89-.14.7-.04,1.82.24,3.27,7.47,4.73,15.44,8.48,24.06,10.6,4.7,1.16,9.48,1.79,14.29,2,.41-1.6.63-3.2.6-4.67Z"/>
          </g>
          <path class="cls-28" d="M814.02,199.72c20.38,57.15,5.06,106.45-11.73,131.83l.81-20.69s19.39-63.05-2.32-106.73c0,0,3.75-1.61,7.15-2.75,3.4-1.14,6.09-1.66,6.09-1.66Z"/>
          <path class="cls-28" d="M866.19,194.69s19.51,101.39,37.74,118.87c0,0-1.17-24.55-2.51-31.3-4.72-23.75-13.73-34.45-20.42-84.74,0,0-7.35-2.42-14.81-2.83Z"/>
          <path class="cls-42" d="M764.11,272.01s-5.44,26.45,1.92,37.12c7.85,11.39,21.03-29.25,21.03-29.25l-22.95-7.87Z"/>
          <path class="cls-17" d="M781.34,215.96c-16.76,14.85-25.46,58.47-26.1,62.61,0,0,22.9,8.92,42.8,2.88,0,0-.11-19.58,0-39.95.09-16.26-7.55-33.64-16.7-25.54Z"/>
          <path class="cls-12" d="M844.72,161.35c.07.24-.59.73-1.86,1.02-.32.07-.67.14-1.05.16-.38.05-.79.04-1.22.03-.86-.05-1.8-.21-2.75-.52-.94-.32-1.79-.77-2.51-1.24-.35-.25-.68-.49-.96-.76-.29-.25-.53-.51-.74-.76-.86-1.03-1.06-1.77-.87-1.94.21-.19.87.32,1.8.91.24.16.5.33.79.49.28.18.6.33.92.51.66.33,1.4.66,2.2.93.8.26,1.59.45,2.32.58.36.05.71.12,1.04.14.33.05.64.06.92.08,1.14.08,1.9.08,1.98.36Z"/>
          <path class="cls-20" d="M864.67,280.7s-6.85-27.24-3.92-28.29c2.93-1.05,10.06,31.82,10.06,31.82l-6.14-3.53Z"/>
          <path class="cls-42" d="M779.21,281.97c.9-1.31,37.1-7.91,54.46-8.74,17.36-.83,25.72-4.91,30.7-.61,4.98,4.3,9.82,20.1,7.65,21.03-2.17.93-6.91,5.59-10.32,4.7-3.41-.88-4.1-6.5-4.1-6.5,0,0-8.52.1-18.6-4.87-10.08-4.97-38.18,22.84-46.75,26.08-8.58,3.24-21.35,8.27-28.02-7.44-6.66-15.71,14.98-23.64,14.98-23.64Z"/>
          <polygon class="cls-25" points="879.51 220.7 938.7 229.72 918.43 336.44 859.5 328.85 879.51 220.7"/>
          <path class="cls-42" d="M933.61,253.29c-8.54-.25-15.5,21.76-10.6,21.98,5.14.23-3.72,9,1.13,9.69,6.21.89-3.92,6.92-1.13,8.71,4.66,2.99,14.47-11.03,10.6-15.1-3.87-4.07,4.11-7.3.9-11.3-3.21-4,4.88-13.81-.9-13.98Z"/>
        </g>
      </g>
    </g>
  </g>
</svg>